<svg id="Capa_1" enable-background="new 0 0 512.033 512.033" height="512" viewBox="0 0 512.033 512.033" width="512" xmlns="http://www.w3.org/2000/svg"><g><g><path d="m17.732 466.787c-5.688 0-10.234-4.741-10-10.424 5.464-132.408 114.535-238.076 248.285-238.076s242.822 105.668 248.285 238.076c.235 5.684-4.311 10.424-10 10.424z" fill="#d9ecfd"/><path d="m504.308 456.362c.23 5.69-4.32 10.43-10 10.43h-32.06c5.69 0 10.24-4.74 10-10.43-5.24-127.08-105.92-229.52-232.25-237.56 5.3-.34 10.64-.51 16.02-.51 133.75 0 242.82 105.66 248.29 238.07z" fill="#c4e1ff"/></g><g><path d="m38.006 466.787c0-120.405 97.607-218.012 218.012-218.012s218.012 97.608 218.012 218.012z" fill="#31a7fb"/><path d="m474.028 466.792h-37.68c0-114.06-87.59-207.66-199.17-217.22 6.21-.53 12.49-.8 18.84-.8 120.4 0 218.01 97.61 218.01 218.02z" fill="#1c96f9"/><path d="m186.118 466.792h-148.11c0-73.67 36.54-138.81 92.49-178.28z" fill="#fb4a59"/><path d="m381.538 288.512-55.62 178.28h-139.8l-55.62-178.28c35.49-25.04 78.79-39.74 125.52-39.74s90.03 14.7 125.52 39.74z" fill="#83d167"/><path d="m381.538 288.512-7.89 25.28c-35.41-35.94-83.19-59.65-136.44-64.22 6.2-.53 12.47-.8 18.81-.8 46.73 0 90.03 14.7 125.52 39.74z" fill="#54c032"/><path d="m269.506 455.04c-19.535 8.862-42.555.21-51.417-19.325s-.21-42.555 19.325-51.417c13.644-6.189 127.92-37.224 195.601-55.379 9.374-2.514 15.061 10.023 6.995 15.419-58.239 38.968-156.86 104.512-170.504 110.702z" fill="#fb4a59"/></g><g><g><path d="m334.019 332.47 8.471 1.303c37.117 5.708 67.069 33.345 75.736 69.884l23.929 100.875h-372.275l23.929-100.875c8.668-36.539 38.62-64.177 75.736-69.884l8.471-1.303z" fill="#fcb44d"/><g fill="#fb9927"><path d="m227.204 332.47v51.604c-14.14-8.295-35.755.306-47.536 6.27-3.624 1.837-7.761-1.234-7.09-5.243 4.562-27.51 16.155-43.991 24.439-52.631z"/><path d="m332.36 390.344c-11.78-5.964-33.395-14.565-47.536-6.27v-51.604h30.196c8.275 8.64 19.867 25.121 24.439 52.631.662 4.009-3.476 7.08-7.099 5.243z"/></g><path d="m227.209 332.485h57.618v172.047h-57.618z" fill="#ffd496"/><path d="m442.151 504.532h-32.256l-23.921-100.875c-8.675-36.533-38.627-64.172-75.741-69.881l-8.465-1.302h32.256l8.465 1.302c37.115 5.71 67.066 33.348 75.741 69.881z" fill="#fb9927"/></g><g><g><path d="m298.45 319.52c-10.845-5.993-17.486-17.497-17.486-29.888v-21.469h-49.458v21.465c0 12.57-6.892 24.097-17.919 30.13v2.045c0 23.434 18.997 42.432 42.432 42.432 23.434 0 42.432-18.997 42.432-42.432v-2.283z" fill="#fda79b"/><g><path d="m287.979 310.48c-9.865 2.874-20.48 4.355-31.746 4.355-11.286 0-21.921-1.481-31.796-4.374 4.503-5.885 7.07-13.163 7.07-20.835v-21.457h49.451v21.467c.001 7.651 2.538 14.959 7.021 20.844z" fill="#fc9085"/></g></g></g><g fill="#fee7c9"><path d="m227.208 363.398v-52.749c0-2.528-1.91-4.648-4.425-4.911l-8.811-.92c-5.636-.588-11.236 1.353-15.297 5.306-8.32 8.101-21.216 24.91-26.099 54.31-.664 3.999 3.472 7.072 7.089 5.24 11.783-5.966 33.401-14.575 47.543-6.276z"/><path d="m284.828 363.398v-52.749c0-2.528 1.91-4.648 4.425-4.911l8.811-.92c5.636-.588 11.236 1.353 15.297 5.306 8.32 8.101 21.216 24.91 26.099 54.31.664 3.999-3.472 7.072-7.089 5.24-11.783-5.966-33.402-14.575-47.543-6.276z"/></g><g><path d="m151.137 55.032c39.414-45.879 112.648-17.223 122.485-13.284v90.336l-122.473 23.934s-31.924-63.84-.012-100.986z" fill="#6c3328"/><g fill="#873f30"><path d="m158.165 183.101h.117c.107.66.078.699-.117 0z"/><path d="m353.872 183.101c-.136.515-.155.495-.087 0z"/><path d="m132.606 183.101h.116c.108.66.079.699-.116 0z"/><path d="m328.226 183.101h.087c-.136.515-.155.495-.087 0z"/></g><g><g fill="#fda79b"><ellipse cx="352.542" cy="170.117" rx="31.895" ry="27.18" transform="matrix(.338 -.941 .941 .338 73.432 444.567)"/><ellipse cx="159.493" cy="170.117" rx="27.18" ry="31.895" transform="matrix(.941 -.338 .338 .941 -48.053 63.805)"/></g><path d="m341.15 132.083v56.358s0 101.707-85.128 101.707c-85.138 0-85.138-101.707-85.138-101.707v-56.358c0-19.354 15.687-35.041 35.041-35.041h100.184c19.353 0 35.041 15.688 35.041 35.041z" fill="#fcb3a9"/><g><path d="m341.15 132.083v31.054h-75.982c-6.611 0-11.4-6.251-9.757-12.652 6.091-23.831-.351-43.546-4.909-53.443h55.607c19.353 0 35.041 15.688 35.041 35.041z" fill="#fda79b"/></g></g><path d="m256.018 248.775c-13.339 0-24.153-10.814-24.153-24.153v-7.842h48.305v7.842c.001 13.34-10.813 24.153-24.152 24.153z" fill="#f8f3f1"/><path d="m265.163 139.724h78.499c8.559 0 16.198-5.389 19.037-13.463 4.17-11.863 6.522-29.004 2.763-53.19-9.789-62.984-93.876-81.191-139.997-51.934-18.378 11.666-24.08 31.628-24.281 51.449h48.825c4.566 9.516 11.71 29.794 5.398 54.49-1.637 6.405 3.146 12.648 9.756 12.648z" fill="#6c3328"/><path d="m362.697 126.256c-2.836 8.084-10.476 13.473-19.034 13.473h-28.248c8.558 0 16.198-5.389 19.034-13.473 4.168-11.858 6.519-28.994 2.765-53.185-5.954-38.34-39.46-60.098-75.166-64.629 44.365-5.783 95.885 16.167 103.413 64.629 3.755 24.19 1.404 41.327-2.764 53.185z" fill="#54231d"/></g></g><g><g><circle cx="453.767" cy="202.957" fill="#31a7fb" r="40.986"/><path d="m494.755 202.957c0 22.64-18.35 40.99-40.99 40.99-7.86 0-15.2-2.21-21.44-6.06 19.08-.25 34.46-15.8 34.46-34.93s-15.38-34.68-34.46-34.93c6.24-3.85 13.58-6.06 21.44-6.06 22.64 0 40.99 18.35 40.99 40.99z" fill="#1c96f9"/></g><g><circle cx="58.267" cy="202.957" fill="#fb4a59" r="40.986"/><path d="m99.255 202.957c0 22.64-18.35 40.99-40.99 40.99-7.86 0-15.2-2.21-21.44-6.06 19.08-.25 34.46-15.8 34.46-34.93s-15.38-34.68-34.46-34.93c6.24-3.85 13.58-6.06 21.44-6.06 22.64 0 40.99 18.35 40.99 40.99z" fill="#f82f40"/></g></g><g><path d="m212.441 21.811c-28.469.193-51.008 9.728-66.992 28.337-23.409 27.244-16.016 66.579-9.058 88.604-4.189 3.602-7.488 8.342-9.616 13.97-3.431 9.072-3.404 19.407.073 29.097 5.9 16.48 20.508 27.19 35.493 27.19.985 0 1.972-.064 2.958-.158.829 5.143 2.019 10.96 3.723 17.105-46.648 16.84-87.122 46.671-117.252 86.481-31.553 41.69-49.373 91.351-51.534 143.622-.194 4.815 1.536 9.38 4.872 12.854 3.331 3.468 7.813 5.378 12.622 5.378h51.615l-6.763 28.509c-.956 4.03 1.536 8.072 5.566 9.028.582.138 1.165.204 1.737.204 3.396 0 6.474-2.322 7.292-5.771l23.93-100.875c1.867-7.875 4.861-15.446 8.898-22.504 2.057-3.596.81-8.177-2.786-10.234-3.594-2.057-8.178-.81-10.233 2.786-4.751 8.305-8.274 17.217-10.475 26.49l-13.608 57.365h-27.262c2.219-63.517 32.544-121.046 80.798-158.609l11.16 35.771c-5.195 2.697-10.163 5.841-14.82 9.422-3.284 2.525-3.899 7.233-1.374 10.517 1.477 1.921 3.701 2.929 5.951 2.929 1.595 0 3.203-.507 4.565-1.555 11.291-8.681 24.697-14.415 38.767-16.583l.126-.019c-2.317 6.503-4.27 13.818-5.636 22.04-.775 4.664 1.107 9.298 4.913 12.093 2.182 1.602 4.75 2.418 7.338 2.418 1.913 0 3.838-.446 5.624-1.351 15.141-7.668 28.161-10.471 36.655-8.041v136.207c0 4.142 3.357 7.5 7.5 7.5s7.5-3.358 7.5-7.5v-137.554c6.602 3.128 13.82 4.758 21.312 4.758 7.49 0 14.706-1.629 21.307-4.756v137.556c0 4.142 3.357 7.5 7.5 7.5s7.5-3.358 7.5-7.5v-136.208c8.493-2.429 21.513.374 36.656 8.042 1.785.904 3.709 1.351 5.623 1.351 2.588 0 5.156-.816 7.337-2.417 3.807-2.795 5.689-7.428 4.915-12.093-1.366-8.223-3.319-15.538-5.637-22.042l.128.02c34.267 5.271 61.579 30.475 69.583 64.208l23.93 100.87c.818 3.449 3.896 5.771 7.292 5.771.573 0 1.155-.066 1.737-.204 4.03-.956 6.522-4.999 5.566-9.028l-6.763-28.509 51.609-.004c4.812 0 9.298-1.913 12.631-5.386 3.334-3.475 5.062-8.037 4.862-12.847-1.795-43.519-14.772-86.093-37.527-123.119-2.168-3.529-6.786-4.63-10.316-2.463-3.529 2.169-4.632 6.788-2.463 10.316 21.416 34.848 33.63 74.919 35.32 115.883.038.931-.422 1.554-.699 1.843-.276.288-.879.772-1.808.772h-12.902c-1.305-39.677-12.94-78.054-33.885-111.647 4.028-4.64 5.054-11.158 2.367-17.078-3.321-7.316-11.064-10.968-18.813-8.885-.657.176-1.325.355-1.985.532-26.009-31.104-59.597-54.488-97.543-67.96 2.135-3.784 4.915-9.799 6.697-14.058 39.914 14.486 75.38 39.371 102.784 72.169 1.483 1.775 3.614 2.691 5.76 2.691 1.696 0 3.401-.572 4.805-1.745 3.179-2.656 3.603-7.386.947-10.564-29.185-34.928-66.984-61.408-109.529-76.778 1.704-6.149 2.895-11.968 3.724-17.114.987.094 1.974.158 2.959.158 14.979 0 29.591-10.709 35.5-27.188 7.102-19.824-.842-41.002-17.735-48.156.917-1.543 1.708-3.179 2.318-4.916 5.49-15.614 6.532-34.734 3.099-56.83-4.266-27.443-21.74-49.414-49.206-61.866-33.042-14.98-74.122-13.073-102.221 4.752-3.27 2.077-6.305 4.419-9.003 7.006zm158.63 154.949c-3.927 10.949-13.457 17.964-22.64 17.203.208-3.242.219-5.235.219-5.521v-40.91c3.122-1.23 7.441-2.061 12.127-.381 10.212 3.664 14.829 16.947 10.294 29.609zm-230.102-.002c-2.276-6.34-2.334-12.992-.164-18.729 2.01-5.316 5.724-9.179 10.456-10.877 4.686-1.678 9-.848 12.119.381v40.909c0 .286.011 2.279.219 5.521-9.187.758-18.71-6.255-22.63-17.205zm32.819 63.425c1.781 4.256 4.564 10.277 6.697 14.059-42.396 15.038-78.905 42.092-105.882 78.564-27.36 36.991-42.476 80.578-43.962 126.485h-12.911c-.927 0-1.527-.481-1.804-.769-.278-.291-.74-.917-.703-1.851 4.011-96.975 67.529-183.423 158.565-216.488zm39.405 72.095 6.515.68v39.99c-12.714-2.057-27.039 2.39-38.812 7.804 5.182-24.812 16.481-38.894 23.012-45.252 2.177-2.122 6.28-3.222 9.285-3.222zm9.391-14.101-7.834-.818c-7.88-.826-15.638 1.874-21.307 7.392-4.825 4.697-10.333 11.293-15.325 20.22h-.099c-.381 0-.762.029-1.138.087l-8.474 1.301c-5.769.889-11.438 2.298-16.945 4.174l-12.193-39.082c15.212-10.098 31.929-18.327 49.88-24.33 9.388 11.725 21.036 20.171 34.708 25.164-.2 2.002-.629 3.982-1.273 5.892zm54.744 12.472v38.839c-6.134 4.709-13.544 7.244-21.308 7.244s-15.179-2.489-21.313-7.199v-38.884c1.928-3.831 3.082-10.241 3.759-14.478 5.588.98 11.442 1.481 17.554 1.481 6.261 0 12.247-.529 17.958-1.557.64 4.084 1.553 10.835 3.35 14.554zm-21.308-27.997c-31.862 0-54.547-15.436-67.422-45.878-10.048-23.758-10.217-48.097-10.218-48.332v-56.36c0-14.388 11.23-26.449 25.566-27.458 4.133-.291 7.246-3.876 6.955-8.008s-3.864-7.248-8.009-6.955c-22.104 1.556-39.428 20.107-39.509 42.266-4.477-.944-9.023-.934-13.395.025-5.772-19.298-11.139-51.108 6.837-72.028 10.87-12.655 25.728-20.144 44.243-22.382-4.768 9.722-7.248 21.395-7.387 34.969-.042 4.142 3.281 7.534 7.424 7.576h.078c4.105 0 7.456-3.308 7.498-7.423.218-21.364 7.217-36.57 20.8-45.193 23.626-14.987 59.809-16.533 87.99-3.756 22.704 10.293 37.115 28.231 40.577 50.508 3.05 19.624 2.233 36.295-2.427 49.55-1.777 5.055-6.584 8.451-11.962 8.451h-8.287c18.71-46.605-11.484-86.083-12.847-87.827-2.548-3.257-7.243-3.831-10.508-1.292-3.264 2.539-3.851 7.248-1.32 10.518 1.184 1.53 28.599 37.739 8.242 78.601h-53.777c-1.091 0-1.734-.619-2.021-.987-.298-.383-.754-1.191-.47-2.303 6.862-26.848-.753-48.86-5.903-59.592-1.793-3.735-6.271-5.309-10.007-3.517-3.734 1.792-5.309 6.272-3.517 10.006 1.604 3.344 3.498 8.009 4.934 13.71h-8.47c-4.143 0-7.5 3.358-7.5 7.5s3.357 7.5 7.5 7.5h10.634c.247 6.319-.312 13.275-2.204 20.678-1.363 5.333-.213 10.88 3.155 15.217 3.35 4.313 8.404 6.787 13.868 6.787h68.486v41.218c0 .239-.115 24.196-10.06 47.959-12.84 30.691-35.574 46.252-67.567 46.252zm42.933 69.784c-2.241 0-4.457.161-6.625.512v-39.99l6.515-.68c3.428-.359 6.815.815 9.286 3.221 6.53 6.358 17.83 20.44 23.013 45.253-9.768-4.491-21.286-8.316-32.189-8.316zm61.628-21.933c-5.452-1.841-11.113-3.246-16.953-4.144l-8.47-1.3c-.376-.058-.757-.087-1.138-.087h-.104c-4.992-8.927-10.5-15.522-15.324-20.219-5.668-5.521-13.444-8.216-21.307-7.393l-7.44.777c-.644-1.945-1.068-3.96-1.259-5.995 13.493-5.01 24.997-13.408 34.29-25.013 17.717 5.927 34.457 14.151 49.855 24.424zm15.731 5.951c-.351.095-.684.222-1.009.362-.279-.147-.564-.283-.845-.428l11.096-35.568c9.844 7.698 19.029 16.293 27.444 25.71-12.238 3.295-24.667 6.657-36.686 9.924zm27.515 23.027c-3.672-4.234-7.704-8.135-12.033-11.685 14.414-3.906 29.131-7.872 43.163-11.631.395-.105.889-.238 1.269.597.379.835-.045 1.119-.383 1.345-9.741 6.511-20.608 13.771-32.016 21.374zm35.309 99.81-13.608-57.361c-2.609-10.996-6.968-21.216-12.754-30.387 7.851-5.232 15.435-10.295 22.569-15.062 19.108 30.995 29.77 66.302 31.054 102.81z"/><path d="m224.365 216.78v7.842c0 17.454 14.199 31.653 31.653 31.653 17.453 0 31.652-14.199 31.652-31.653v-7.842c0-4.142-3.357-7.5-7.5-7.5h-48.306c-4.142 0-7.499 3.358-7.499 7.5zm15 7.5h33.306v.342c0 9.183-7.471 16.653-16.652 16.653-9.183 0-16.653-7.47-16.653-16.653v-.342z"/><path d="m285.759 174.708c1.528 0 3.071-.466 4.402-1.433 2.081-1.512 4.868-2.345 7.846-2.345s5.764.833 7.844 2.344c3.353 2.434 8.041 1.693 10.477-1.659 2.435-3.351 1.692-8.041-1.658-10.476-4.624-3.359-10.541-5.209-16.662-5.209-6.12 0-12.038 1.85-16.662 5.209-3.351 2.434-4.094 7.125-1.66 10.476 1.467 2.021 3.754 3.093 6.073 3.093z"/><path d="m195.704 171.616c2.436 3.353 7.126 4.095 10.477 1.66 2.081-1.512 4.867-2.345 7.845-2.345s5.765.833 7.846 2.345c1.331.967 2.874 1.433 4.402 1.433 2.319 0 4.606-1.073 6.074-3.093 2.434-3.351 1.69-8.042-1.66-10.476-4.624-3.359-10.542-5.209-16.662-5.209s-12.037 1.85-16.661 5.209c-3.352 2.434-4.095 7.124-1.661 10.476z"/><path d="m253.126 199.617h5.782c4.143 0 7.5-3.358 7.5-7.5s-3.357-7.5-7.5-7.5h-5.782c-4.143 0-7.5 3.358-7.5 7.5s3.358 7.5 7.5 7.5z"/><path d="m295.98 118.004c.655.177 1.313.262 1.961.262 3.305 0 6.332-2.202 7.235-5.546 3.046-11.274.487-28.609.186-30.548-.637-4.091-4.466-6.891-8.561-6.256-4.092.635-6.895 4.467-6.262 8.559.681 4.408 2.037 17.372.156 24.333-1.079 3.998 1.286 8.116 5.285 9.196z"/><path d="m453.767 251.443c26.735 0 48.485-21.751 48.485-48.486s-21.75-48.486-48.485-48.486-48.486 21.75-48.486 48.486 21.751 48.486 48.486 48.486zm0-81.972c18.464 0 33.485 15.021 33.485 33.486s-15.021 33.486-33.485 33.486c-18.465 0-33.486-15.022-33.486-33.486s15.021-33.486 33.486-33.486z"/><path d="m440.359 210.457h5.909v5.91c0 4.142 3.357 7.5 7.5 7.5s7.5-3.358 7.5-7.5v-5.91h5.909c4.143 0 7.5-3.358 7.5-7.5s-3.357-7.5-7.5-7.5h-5.909v-5.909c0-4.142-3.357-7.5-7.5-7.5s-7.5 3.358-7.5 7.5v5.909h-5.909c-4.143 0-7.5 3.358-7.5 7.5s3.357 7.5 7.5 7.5z"/><path d="m58.266 251.443c26.735 0 48.486-21.751 48.486-48.486s-21.751-48.486-48.486-48.486-48.485 21.75-48.485 48.486 21.75 48.486 48.485 48.486zm0-81.972c18.465 0 33.486 15.021 33.486 33.486s-15.021 33.486-33.486 33.486c-18.464 0-33.485-15.022-33.485-33.486s15.021-33.486 33.485-33.486z"/><path d="m44.858 210.457h26.819c4.143 0 7.5-3.358 7.5-7.5s-3.357-7.5-7.5-7.5h-26.819c-4.143 0-7.5 3.358-7.5 7.5s3.357 7.5 7.5 7.5z"/><path d="m370.545 416.087c-4.143 0-7.5 3.358-7.5 7.5v78.487c0 4.142 3.357 7.5 7.5 7.5s7.5-3.358 7.5-7.5v-78.487c0-4.142-3.357-7.5-7.5-7.5z"/><path d="m141.491 416.087c-4.143 0-7.5 3.358-7.5 7.5v78.487c0 4.142 3.357 7.5 7.5 7.5s7.5-3.358 7.5-7.5v-78.487c0-4.142-3.358-7.5-7.5-7.5z"/></g></g></svg>