<svg id="Digital_content" height="512" viewBox="0 0 64 64" width="512" xmlns="http://www.w3.org/2000/svg" data-name="Digital content"><path d="m45 43a2.006 2.006 0 0 0 -2-2h-1a2.015 2.015 0 0 0 2-2 2.006 2.006 0 0 0 -2-2h-1a2.015 2.015 0 0 0 2-2 2.006 2.006 0 0 0 -2-2h1a2.015 2.015 0 0 0 2-2 2 2 0 0 0 -.27-1h2.27l2 1.2v13.8a3 3 0 0 1 -6 0h1a2.015 2.015 0 0 0 2-2z" fill="#78b9eb"/><circle cx="45" cy="14" fill="#78b9eb" r="7"/><path d="m45 25a11 11 0 0 0 0-22h15a1 1 0 0 1 1 1v20a1 1 0 0 1 -1 1z" fill="#78b9eb"/><path d="m40.5 25h-10.5a.99.99 0 0 1 -1-1v-20a1 1 0 0 1 1-1h15a11 11 0 0 0 0 22z" fill="#78b9eb"/><path d="m20 58c3.69 0 6.7-1.82 6.97-4.15a5.949 5.949 0 0 0 .59.22l2.16.65a5.991 5.991 0 0 1 4.28 5.74v.54h-28v-.54a5.991 5.991 0 0 1 4.28-5.74l2.16-.65a5.949 5.949 0 0 0 .59-.22c.27 2.33 3.28 4.15 6.97 4.15z" fill="#78b9eb"/><path d="m28 30v2h-12.31a7.682 7.682 0 0 1 -7.69-7.69v-1.31h14a5.994 5.994 0 0 1 6 6z" fill="#78b9eb"/><path d="m3 7h26v8h-26z" fill="#78b9eb"/><g fill="#006df0"><path d="m62 24v-20a2.006 2.006 0 0 0 -2-2h-30a2.006 2.006 0 0 0 -2 2v2h-25a1 1 0 0 0 -1 1v54a1 1 0 0 0 1 1h52a1 1 0 0 0 1-1v-17.25l2.33-1.75h3.67v-2h-4a.984.984 0 0 0 -.6.2l-3.73 2.8h-4.67v-10.03l1.49.89 1.02-1.72-5-3a1 1 0 0 0 -.51-.14h-5.5a1.5 1.5 0 0 1 0-3h12l2.7 3.6a1.014 1.014 0 0 0 .8.4h6v-2h-5.5l-1.5-2h5a2.006 2.006 0 0 0 2-2zm-32-20h8.38a11.984 11.984 0 0 0 0 20h-8.38zm-26 4h24v6h-24zm3.02 52a4.951 4.951 0 0 1 3.55-4.32l1.79-.54c1 2.26 4.03 3.86 7.64 3.86s6.64-1.6 7.64-3.86l1.79.54a4.951 4.951 0 0 1 3.55 4.32zm5.98-27.43a8.563 8.563 0 0 0 2.69.43h11.31v8a7 7 0 0 1 -14 0zm-4-8.26v-.31h13a5 5 0 0 1 5 5v2h-11.31a6.7 6.7 0 0 1 -6.69-6.69zm7.98 25.16a8.869 8.869 0 0 0 6.04 0 5.912 5.912 0 0 0 2.79 4.87c-.67 1.51-3.08 2.66-5.81 2.66s-5.14-1.15-5.81-2.66a5.912 5.912 0 0 0 2.79-4.87zm32.02-4.47h5v15h-19.04a6.943 6.943 0 0 0 -4.95-6.24l-2.16-.65a3.978 3.978 0 0 1 -2.85-3.83v-.8a9.01 9.01 0 0 0 4-7.48v-2h1a3.009 3.009 0 0 0 3-3v-1a3.009 3.009 0 0 0 -3-3h-1v-3a7.008 7.008 0 0 0 -7-7h-14a1 1 0 0 0 -1 1v1.31a8.689 8.689 0 0 0 4 7.3v.39h-1a3.009 3.009 0 0 0 -3 3v1a3.009 3.009 0 0 0 3 3h1v2a9.01 9.01 0 0 0 4 7.48v.8a3.978 3.978 0 0 1 -2.85 3.83l-2.16.65a6.943 6.943 0 0 0 -4.95 6.24h-1.04v-44h24v8a2.006 2.006 0 0 0 2 2h7.35a3.446 3.446 0 0 0 -.35 1.5 3.512 3.512 0 0 0 .07.66 2.961 2.961 0 0 0 -1.67 4.31 2.986 2.986 0 0 0 0 5.06 2.942 2.942 0 0 0 -.4 1.47 2.983 2.983 0 0 0 1.4 2.53 2.942 2.942 0 0 0 -.4 1.47 3.009 3.009 0 0 0 3 3h2.14a3.993 3.993 0 0 0 7.86-1zm-20-8v-3h1a1 1 0 0 1 1 1v1a1 1 0 0 1 -1 1zm-18-3v3h-1a1 1 0 0 1 -1-1v-1a1 1 0 0 1 1-1zm31 6h-4a1 1 0 0 1 0-2h4a1 1 0 0 1 0 2zm2 3a1 1 0 0 1 -1 1h-4a1 1 0 0 1 0-2h4a1 1 0 0 1 1 1zm-3-7h-4a1 1 0 0 1 0-2h4a1 1 0 0 1 0 2zm2.6-2.47a3.332 3.332 0 0 0 .51-.4 2.971 2.971 0 0 0 .89-2.13h.72l1.28.77v13.23a1.994 1.994 0 0 1 -3.74.97 2.982 2.982 0 0 0 1.34-5.5 2.942 2.942 0 0 0 .4-1.47 2.983 2.983 0 0 0 -1.4-2.53 2.9 2.9 0 0 0 0-2.94zm-3.1-2.53h2.5a.949.949 0 0 1 -.31.71.928.928 0 0 1 -.69.29h-4a1 1 0 0 1 -1-1 .949.949 0 0 1 .31-.71.928.928 0 0 1 .69-.29h.06a3.464 3.464 0 0 0 2.44 1zm-5.5-17a10 10 0 1 1 10 10 10.016 10.016 0 0 1 -10-10zm16.62 10a11.984 11.984 0 0 0 0-20h8.38v20z"/><path d="m45 6a8 8 0 1 0 8 8 8.009 8.009 0 0 0 -8-8zm0 14a6 6 0 1 1 6-6 6.006 6.006 0 0 1 -6 6z"/><path d="m6 10h2v2h-2z"/><path d="m10 10h2v2h-2z"/><path d="m14 10h2v2h-2z"/><path d="m20 45c2.243 0 4-1.318 4-3h-2c0 .408-.779 1-2 1s-2-.592-2-1h-2c0 1.682 1.757 3 4 3z"/><path d="m17 39a1 1 0 0 0 1-1v-1a1 1 0 0 0 -2 0v1a1 1 0 0 0 1 1z"/><path d="m23 39a1 1 0 0 0 1-1v-1a1 1 0 0 0 -2 0v1a1 1 0 0 0 1 1z"/></g></svg>