<svg id="Capa_1" enable-background="new 0 0 512.002 512.002" height="512" viewBox="0 0 512.002 512.002" width="512" xmlns="http://www.w3.org/2000/svg"><g><g><path d="m161.729 115.207c-37.01 0-67.922 26.042-75.452 60.798l-1.768 142.347v28.826h156.44v-154.75c0-42.649-36.573-77.221-79.22-77.221z" fill="#695d67"/><path d="m130.767 176.004c5.962-27.521 26.592-49.563 53.295-57.554-7.128-2.101-14.629-3.244-22.333-3.244-37.01 0-67.922 26.042-75.452 60.798l-1.768 142.347v28.826h44.491v-28.826z" fill="#544e55"/><path d="m407.971 115.207h-246.242c42.647 0 77.22 34.572 77.22 77.219v154.75h246.242v-154.75c0-42.647-34.573-77.219-77.22-77.219z" fill="#ff656f"/><path d="m203.51 115.207h-41.781c42.647 0 77.22 34.572 77.22 77.219v154.75h41.781v-154.75c0-42.647-34.573-77.219-77.22-77.219z" fill="#ff4756"/><path d="m263.86 405.262v91.774c0 4.065 3.295 7.36 7.36 7.36h32.12c4.065 0 7.36-3.295 7.36-7.36v-91.774z" fill="#dfebfa"/><path d="m290.693 497.036v-91.774h-26.833v91.774c0 4.065 3.295 7.36 7.36 7.36h26.833c-4.065 0-7.36-3.295-7.36-7.36z" fill="#b1dbfc"/><g><path d="m200.202 176.005h-185.766c-3.86 0-7.018 3.158-7.018 7.018v126.312c0 3.86 3.158 7.018 7.018 7.018h185.766c3.86 0 7.018-3.158 7.018-7.018v-126.313c0-3.86-3.158-7.017-7.018-7.017z" fill="#ffc20c"/><path d="m41.277 309.334v-126.312c0-3.86 3.158-7.018 7.017-7.018h-33.858c-3.86 0-7.017 3.158-7.017 7.018v126.312c0 3.86 3.158 7.018 7.017 7.018h33.858c-3.859 0-7.017-3.158-7.017-7.018z" fill="#ffa90f"/><path d="m119.161 253.937c-6.744 6.027-16.939 6.027-23.683 0l-10.032-8.965-76.077 69.195c1.28 1.341 3.079 2.184 5.068 2.184h185.766c1.989 0 3.788-.843 5.068-2.184l-76.077-69.195z" fill="#ffd301"/><path d="m41.277 309.334v-24.189l-31.908 29.022c1.28 1.341 3.078 2.184 5.068 2.184h33.858c-3.86.001-7.018-3.157-7.018-7.017z" fill="#ffc20c"/><path d="m200.202 176.005h-185.766c-1.989 0-3.788.843-5.068 2.184l86.109 76.955c6.744 6.027 16.939 6.027 23.683 0l86.109-76.955c-1.279-1.342-3.078-2.184-5.067-2.184z" fill="#fee55a"/><path d="m41.277 183.022c0-3.86 3.158-7.018 7.017-7.018h-33.858c-1.989 0-3.788.843-5.068 2.184l31.909 28.516z" fill="#ffd301"/></g><path d="m395.386 74.648-89.09-41.494v95.733l89.09-41.494c5.416-2.523 5.416-10.223 0-12.745z" fill="#ffd301"/><path d="m335.964 46.971-29.667-13.817v95.733l29.667-13.818z" fill="#ffc20c"/><g><path d="m293.585 210.897c4.905 0 9.54 1.148 13.659 3.182v-200.413c0-3.464-2.808-6.272-6.272-6.272h-14.774c-3.464 0-6.272 2.808-6.272 6.272v200.414c4.119-2.035 8.754-3.183 13.659-3.183z" fill="#dfebfa"/></g><g><g><path d="m295.092 13.666c0-3.398 2.703-6.157 6.076-6.262-.066-.002-.13-.01-.196-.01h-14.774c-3.464 0-6.272 2.808-6.272 6.272v200.414c4.119-2.034 8.754-3.182 13.659-3.182.506 0 1.008.02 1.508.044v-197.276z" fill="#b1dbfc"/></g></g><path d="m215.556 374.219v24.298c0 4.83 3.915 8.745 8.745 8.745h125.957c4.829 0 8.745-3.915 8.745-8.745v-24.298z" fill="#b1dbfc"/><path d="m250.056 398.517v-24.298h-34.5v24.298c0 4.83 3.915 8.745 8.745 8.745h34.5c-4.83 0-8.745-3.915-8.745-8.745z" fill="#8bcaff"/><path d="m497.293 345.177h-420.028c-3.936 0-7.127 3.191-7.127 7.127v16.788c0 3.936 3.191 7.127 7.127 7.127h420.028c3.936 0 7.127-3.191 7.127-7.127v-16.788c.001-3.936-3.19-7.127-7.127-7.127z" fill="#7b6c79"/><path d="m117.805 369.092v-16.788c0-3.936 3.191-7.127 7.127-7.127h-47.667c-3.936 0-7.127 3.191-7.127 7.127v16.788c0 3.936 3.191 7.127 7.127 7.127h47.667c-3.937.001-7.127-3.19-7.127-7.127z" fill="#695d67"/><circle cx="293.585" cy="236.789" fill="#ff4756" r="30.892"/><circle cx="293.585" cy="236.789" fill="#ff4756" r="30.892"/><path d="m290.239 236.788c0-12.11 6.973-22.587 17.119-27.651-4.147-2.07-8.822-3.241-13.773-3.241-17.061 0-30.892 13.831-30.892 30.891 0 17.061 13.831 30.892 30.892 30.892 4.95 0 9.625-1.171 13.773-3.241-10.147-5.063-17.119-15.539-17.119-27.65z" fill="#fc2d39"/></g><g><path d="m497.375 337.783h-4.604v-73.366c0-4.142-3.357-7.5-7.5-7.5s-7.5 3.358-7.5 7.5v73.366h-231.241v-145.25c0-28.881-14.536-54.419-36.666-69.72h62.643v82.069c-10.375 6.88-17.232 18.658-17.232 32.013 0 21.169 17.223 38.392 38.392 38.392s38.392-17.222 38.392-38.392c0-13.354-6.858-25.133-17.232-32.013v-71.595l22.488-10.474h70.739c38.443 0 69.719 31.276 69.719 69.719v36.885c0 4.142 3.357 7.5 7.5 7.5s7.5-3.358 7.5-7.5v-36.885c0-46.714-38.005-84.719-84.72-84.719h-38.533l29.157-13.58c11.144-5.191 11.132-21.029 0-26.213l-83.851-39.054v-15.194c-.001-7.594-6.18-13.772-13.773-13.772h-14.773c-7.594 0-13.772 6.178-13.772 13.772v94.041h-110.697c-37.673 0-70.665 24.878-81.257 60.797h-66.036c-8.047 0-14.518 6.609-14.518 14.518v126.312c0 7.957 6.517 14.518 14.518 14.518h62.572v13.839c-7.946.139-14.37 6.635-14.37 14.614v16.789c0 8.065 6.562 14.627 14.627 14.627h130.791v14.798c0 8.958 7.287 16.245 16.244 16.245h32.06v82.274c0 8.193 6.666 14.859 14.859 14.859h32.12c8.193 0 14.859-6.666 14.859-14.859v-24.505c0-4.142-3.357-7.5-7.5-7.5s-7.5 3.358-7.5 7.5v24.364h-31.839v-82.134h31.839v22.77c0 4.142 3.357 7.5 7.5 7.5s7.5-3.358 7.5-7.5v-22.77h32.059c8.958 0 16.245-7.287 16.245-16.245v-14.798h130.791c8.065 0 14.627-6.562 14.627-14.627v-16.789c0-8.065-6.562-14.627-14.627-14.627zm-182.55-292.27 76.463 35.613-76.463 35.613zm-27.318-30.513h12.318v184.003c-3.988-.646-8.07-.688-12.318 0zm6.159 198.503c12.898 0 23.392 10.494 23.392 23.392s-10.493 23.392-23.392 23.392-23.392-10.494-23.392-23.392 10.494-23.392 23.392-23.392zm-131.855-90.69c38.443 0 69.72 31.276 69.72 69.72v145.25h-139.441v-13.826h108.193c7.982 0 14.518-6.542 14.518-14.518v-126.311c0-7.946-6.506-14.518-14.518-14.518h-103.95c9.909-27.016 36.09-45.797 65.478-45.797zm37.99 176.441-59.271-52.969 59.271-52.97zm-113.534-115.644h.031 101.85l-73.904 66.047c-3.901 3.487-9.786 3.487-13.688 0-11.397-10.186-62.875-56.191-73.903-66.047zm-71.267 9.703 59.272 52.971-59.272 52.971zm11.654 115.645 58.873-52.614 5.033 4.498c9.601 8.578 24.078 8.579 33.68 0l5.033-4.498 58.874 52.614zm324.93 89.666c0 .687-.559 1.245-1.245 1.245h-125.957c-.686 0-1.244-.558-1.244-1.245v-14.798h128.446zm145.418-29.798c-21.588 0-393.942 0-419.282 0v-16.042h419.282z"/></g></g></svg>