<svg height="512pt" viewBox="0 -25 512 512" width="512pt" xmlns="http://www.w3.org/2000/svg"><path d="m334 454.25c-20.15625 0-36.5-16.339844-36.5-36.5v-61.5h73v61.5c0 20.160156-16.34375 36.5-36.5 36.5zm0 0" fill="#edaf54"/><path d="m370.5 356.25v61.5c0 20.160156-16.339844 36.5-36.5 36.5-5.351562 0-10.421875-1.148438-15-3.210938 12.679688-5.726562 21.5-18.476562 21.5-33.289062v-61.5zm0 0" fill="#db8733"/><path d="m379.5 366.25h-91c-5.523438 0-10-4.476562-10-10v-30h111v30c0 5.523438-4.476562 10-10 10zm0 0" fill="#ccc"/><path d="m389.5 326.25v30c0 5.519531-4.480469 10-10 10h-30c5.519531 0 10-4.480469 10-10v-30zm0 0" fill="#a0a0a0"/><path d="m278.5 336.25h-256c-8.285156 0-15-6.714844-15-15 0-8.28125 6.714844-15 15-15h256zm0 0" fill="#ccc"/><path d="m272.5 165.25v141h-187c-5.519531 0-10-4.480469-10-10v-121c0-2.699219 1.070312-5.148438 2.820312-6.949219 1.808594-1.878906 4.359376-3.050781 7.179688-3.050781zm0 0" fill="#ffd47d"/><path d="m262.5 336.25h222c11.046875 0 20-8.953125 20-20v-200c0-27.0625-21.9375-49-49-49h-241.5l48.5 93zm0 0" fill="#ff8c64"/><path d="m262.5 180.402344v19.128906l-65.640625 53.429688c-5.089844 4.140624-11.21875 6.21875-17.359375 6.21875-5.988281 0-11.980469-1.980469-17.011719-5.929688l-28.777343-22.648438-53.789063 39.167969c-1.34375.972657-2.882813 1.441407-4.410156 1.441407h-.011719v-16.78125l45.96875-33.46875-45.96875-36.171876v-9.539062c0-2.699219 1.070312-5.148438 2.820312-6.949219.640626.261719 1.25.609375 1.820313 1.058594l91.628906 72.101563c4.621094 3.640624 11.050781 3.589843 15.621094-.128907zm0 0" fill="#edaf54"/><path d="m213.5 67.25c27.0625 0 49 21.9375 49 49v49h-98v-49c0-27.0625 21.9375-49 49-49zm0 0" fill="#a0513f"/><path d="m355 38.75v-16.5c0-8.007812-6.492188-14.5-14.5-14.5h-45.5c-2.761719 0-5 2.238281-5 5v10.5c0 8.527344 6.976562 15.5 15.5 15.5zm0 0" fill="#3c4042"/><path d="m464.5 313.75h-56c-4.144531 0-7.5-3.355469-7.5-7.5 0-4.140625 3.355469-7.5 7.5-7.5h56c4.144531 0 7.5 3.359375 7.5 7.5 0 4.144531-3.355469 7.5-7.5 7.5zm0 0" fill="#a0513f"/><path d="m464.5 283.75h-26c-4.144531 0-7.5-3.355469-7.5-7.5 0-4.140625 3.355469-7.5 7.5-7.5h26c4.144531 0 7.5 3.359375 7.5 7.5 0 4.144531-3.355469 7.5-7.5 7.5zm0 0" fill="#a0513f"/><path d="m355 178c0 11.597656-9.402344 21-21 21s-21-9.402344-21-21 9.402344-21 21-21 21 9.402344 21 21zm0 0" fill="#fff"/><path d="m504.5 116.25v200c0 11.050781-8.949219 20-20 20h-30c11.050781 0 20-8.949219 20-20v-200c0-27.058594-21.941406-49-49-49h30c27.058594 0 49 21.941406 49 49zm0 0" fill="#ed5743"/><path d="m455.5 60h-92.5v-37.5c0-12.40625-10.09375-22.5-22.5-22.5h-45c-6.894531 0-12.5 5.605469-12.5 12.5v10c0 12.40625 10.09375 22.5 22.5 22.5h42.5v15h-134c-.054688 0-.109375.007812-.167969.007812-.109375 0-.21875-.007812-.332031-.007812-31.152344 0-56.5 25.347656-56.5 56.5v41.5h-71.5c-9.425781 0-17.113281 7.492188-17.464844 16.832031-.015625.144531-.019531.289063-.023437.433594 0 .078125-.011719.15625-.011719.234375l-.003906 123.5h-45.496094c-12.40625 0-22.5 10.09375-22.5 22.5s10.09375 22.5 22.5 22.5h165.25c4.144531 0 7.5-3.359375 7.5-7.5s-3.355469-7.5-7.5-7.5h-165.25c-4.136719 0-7.5-3.363281-7.5-7.5s3.363281-7.5 7.5-7.5h232.5v15h-32.25c-4.144531 0-7.5 3.359375-7.5 7.5s3.355469 7.5 7.5 7.5h48.25v12.5c0 9.648438 7.851562 17.5 17.5 17.5h74.5v44c0 15.992188-13.011719 29-29 29s-29-13.007812-29-29v-16.5c0-4.140625-3.355469-7.5-7.5-7.5s-7.5 3.359375-7.5 7.5v16.5c0 24.261719 19.738281 44 44 44s44-19.738281 44-44v-44h1.5c9.648438 0 17.5-7.851562 17.5-17.5v-12.5h87.5c15.164062 0 27.5-12.335938 27.5-27.5v-200c0-31.152344-25.347656-56.5-56.5-56.5zm-150-30c-4.136719 0-7.5-3.363281-7.5-7.5v-7.5h42.5c4.136719 0 7.5 3.363281 7.5 7.5v7.5zm-133.5 86.5c0-22.882812 18.617188-41.5 41.5-41.5s41.5 18.617188 41.5 41.5v41.5h-83zm83 56.5v13.535156l-67.613281 55.042969c-4.566407 3.71875-10.992188 3.773437-15.621094.128906l-87.113281-68.550781c.265625-.09375.546875-.15625.847656-.15625zm-172 17.945312 38.464844 30.269532-38.464844 28.007812zm0 105.554688v-28.722656l50.710938-36.925782 28.777343 22.644532c5.03125 3.957031 11.023438 5.929687 17.007813 5.929687 6.140625 0 12.273437-2.074219 17.363281-6.214843l58.140625-47.332032v93.121094h-169.5c-1.378906 0-2.5-1.121094-2.5-2.5zm299 60c0 1.378906-1.121094 2.5-2.5 2.5h-91c-1.378906 0-2.5-1.121094-2.5-2.5v-12.5h96zm115-40c0 6.894531-5.605469 12.5-12.5 12.5h-214.5v-212.5c0-16.390625-7.023438-31.171875-18.210938-41.5h96.210938v77.613281c-4.152344-2.300781-8.925781-3.613281-14-3.613281-15.988281 0-29 13.007812-29 29s13.011719 29 29 29 29-13.007812 29-29v-103h92.5c22.882812 0 41.5 18.617188 41.5 41.5zm-149-138.5c0 7.71875-6.28125 14-14 14s-14-6.28125-14-14 6.28125-14 14-14 14 6.28125 14 14zm0 0"/><path d="m464.5 299h-56c-4.144531 0-7.5 3.359375-7.5 7.5s3.355469 7.5 7.5 7.5h56c4.144531 0 7.5-3.359375 7.5-7.5s-3.355469-7.5-7.5-7.5zm0 0"/><path d="m464.5 269h-26c-4.144531 0-7.5 3.359375-7.5 7.5s3.355469 7.5 7.5 7.5h26c4.144531 0 7.5-3.359375 7.5-7.5s-3.355469-7.5-7.5-7.5zm0 0"/></svg>