<svg height="512pt" viewBox="-38 0 512 512.002" width="512pt" xmlns="http://www.w3.org/2000/svg"><path d="m333.5 316.5c11.046875 0 20 8.953125 20 20v148c0 11.046875-8.953125 20-20 20h-231c-11.046875 0-20-8.953125-20-20v-148c0-11.046875 8.953125-20 20-20zm0 0" fill="#ffd47d"/><path d="m249.5 394.5h-63c-8.28125 0-15-6.714844-15-15v-68c0-5.523438 4.476562-10 10-10h73c5.523438 0 10 4.476562 10 10v68c0 8.285156-6.714844 15-15 15zm0 0" fill="#edaf54"/><path d="m313.5 474.5h-23c-5.523438 0-10-4.476562-10-10v-10c0-5.523438 4.476562-10 10-10h23c5.523438 0 10 4.476562 10 10v10c0 5.523438-4.476562 10-10 10zm0 0" fill="#fff7e6"/><path d="m218.003906 7.5v.089844c-65.519531 32.851562-110.5 121.628906-110.5 199.910156v29.5c-.140625-27.46875-22.46875-44.75-50-44.75-27.609375 0-50 17.390625-50 45v-29.75c0-110.460938 89.539063-200 200-200zm0 0" fill="#f66"/><path d="m428.503906 207.5v29.75c0-27.609375-22.390625-45-50-45-27.53125 0-49.859375 17.28125-50 44.75v-29.5c0-78.28125-44.980468-167.058594-110.5-199.910156v-.089844h10.5c110.460938 0 200 89.539062 200 200zm0 0" fill="#e8e8e8"/><path d="m218.003906 7.589844v229.410156c0-30.511719-24.738281-45.25-55.25-45.25-30.511718 0-55.25 14.738281-55.25 45.25v-29.5c0-78.28125 44.980469-167.058594 110.5-199.910156zm0 0" fill="#e8e8e8"/><path d="m328.503906 207.5v29.5c0-30.511719-24.738281-45.25-55.25-45.25-15.25 0-29.070312 3.691406-39.070312 11.179688-10 7.5-16.179688 18.808593-16.179688 34.070312v-229.410156c65.519532 32.851562 110.5 121.628906 110.5 199.910156zm0 0" fill="#f66"/><path d="m353.5 336.5v148c0 11.050781-8.949219 20-20 20h-30c11.050781 0 20-8.949219 20-20v-148c0-11.050781-8.949219-20-20-20h30c11.050781 0 20 8.949219 20 20zm0 0" fill="#e89e46"/><path d="m264.5 311.5v68c0 8.28125-6.71875 15-15 15h-30c8.28125 0 15-6.71875 15-15v-68c0-5.519531-4.480469-10-10-10h30c5.519531 0 10 4.480469 10 10zm0 0" fill="#db8733"/><path d="m428.503906 207.5v29.75c0-20.640625-12.511718-35.570312-30.359375-41.789062-5.800781-97.679688-81.691406-176.480469-178.082031-186.8125-.679688-.359376-1.367188-.707032-2.058594-1.058594v-.089844h10.5c110.460938 0 200 89.539062 200 200zm0 0" fill="#ccc"/><path d="m113 482h37c4.144531 0 7.5-3.355469 7.5-7.5s-3.355469-7.5-7.5-7.5h-37c-4.140625 0-7.5 3.355469-7.5 7.5s3.359375 7.5 7.5 7.5zm0 0"/><path d="m113 452h19c4.144531 0 7.5-3.355469 7.5-7.5s-3.355469-7.5-7.5-7.5h-19c-4.140625 0-7.5 3.355469-7.5 7.5s3.359375 7.5 7.5 7.5zm0 0"/><path d="m313.5 482c9.648438 0 17.5-7.851562 17.5-17.5v-10c0-9.648438-7.851562-17.5-17.5-17.5h-23c-9.648438 0-17.5 7.851562-17.5 17.5v10c0 9.648438 7.851562 17.5 17.5 17.5zm-25.5-17.5v-10c0-1.378906 1.121094-2.5 2.5-2.5h23c1.378906 0 2.5 1.121094 2.5 2.5v10c0 1.378906-1.121094 2.5-2.5 2.5h-23c-1.378906 0-2.5-1.121094-2.5-2.5zm0 0"/><path d="m228.5 0h-21c-114.414062 0-207.5 93.085938-207.5 207.5v30c0 2.085938.851562 3.96875 2.226562 5.328125.003907.003906.007813.011719.011719.015625l78.300781 77.128906c-3.472656 4.601563-5.539062 10.328125-5.539062 16.527344v148c0 15.164062 12.335938 27.5 27.5 27.5h48c4.144531 0 7.5-3.355469 7.5-7.5 0-4.140625-3.355469-7.5-7.5-7.5h-48c-6.890625 0-12.5-5.605469-12.5-12.5v-148c0-6.890625 5.609375-12.5 12.5-12.5h61.5v55.5c0 12.40625 10.09375 22.5 22.5 22.5h63c12.40625 0 22.5-10.09375 22.5-22.5v-68c0-9.648438-7.851562-17.5-17.5-17.5h-73c-8.796875 0-16.078125 6.535156-17.300781 15h-61.699219c-3.472656 0-6.796875.65625-9.859375 1.835938l-77.53125-76.371094c1.410156-20.578125 18.4375-34.714844 42.394531-34.714844 24.917969 0 42.351563 15.292969 42.496094 37.226562v.054688l.003906.25v.222656c0 4.140625 3.355469 7.5 7.5 7.5 4.140625 0 7.5-3.359375 7.5-7.5v-.605468c.070313-34.929688 36.558594-37.648438 47.75-37.648438 14.167969 0 26.121094 3.351562 34.566406 9.683594 8.746094 6.5625 13.183594 16.003906 13.183594 28.070312 0 4.140625 3.355469 7.5 7.5 7.5 4.140625 0 7.5-3.359375 7.5-7.5v-.25c.171875-34.789062 36.574219-37.503906 47.75-37.503906 11.199219 0 47.75 2.722656 47.75 37.753906v.5c0 4.140625 3.355469 7.5 7.5 7.5 4.140625 0 7.5-3.359375 7.5-7.5v-.25c0-22.082031 17.476563-37.5 42.5-37.5 23.957032 0 40.980469 14.136719 42.394532 34.714844l-77.53125 76.371094c-3.066407-1.183594-6.386719-1.835938-9.863282-1.835938h-34c-4.140625 0-7.5 3.355469-7.5 7.5 0 4.140625 3.359375 7.5 7.5 7.5h34c6.894532 0 12.5 5.605469 12.5 12.5v148c0 6.890625-5.605468 12.5-12.5 12.5h-148c-4.140625 0-7.5 3.355469-7.5 7.5 0 4.140625 3.359375 7.5 7.5 7.5h148c15.164063 0 27.5-12.339844 27.5-27.5v-148c0-6.199218-2.0625-11.925781-5.539062-16.53125l78.300781-77.128906c.007813-.003906.007813-.007812.011719-.015625 1.375-1.355469 2.226562-3.242187 2.226562-5.328125v-30c-.003906-114.414062-93.085937-207.5-207.503906-207.5zm-49.5 311.5c0-1.378906 1.121094-2.5 2.5-2.5h73c1.378906 0 2.5 1.121094 2.5 2.5v68c0 4.136719-3.363281 7.5-7.5 7.5h-63c-4.136719 0-7.5-3.363281-7.5-7.5zm-121.5-126.75c-17.285156 0-32.097656 5.953125-42.363281 15.921875 3.414062-97.445313 79.59375-176.6875 175.75-184.945313-22.941407 17.289063-43.472657 41.820313-59.3125 71.222657-19.238281 35.730469-30.308594 75.929687-31.464844 113.941406-10.273437-10.105469-25.191406-16.140625-42.609375-16.140625zm105.25-.5c-20.242188 0-36.660156 5.859375-47.625 16.140625 2.441406-72.675781 41.964844-146.71875 95.375-179.988281v180.09375c-10.964844-10.347656-27.429688-16.246094-47.75-16.246094zm110.5 0c-17.4375 0-32.503906 4.386719-43.566406 12.683594-1.480469 1.109375-2.867188 2.289062-4.183594 3.519531v-180.050781c53.410156 33.269531 92.933594 107.308594 95.378906 179.984375-10.96875-10.277344-27.382812-16.136719-47.628906-16.136719zm105.25.5c-17.414062 0-32.332031 6.035156-42.605469 16.140625-1.160156-38.011719-12.226562-78.210937-31.46875-113.941406-15.835937-29.402344-36.367187-53.933594-59.3125-71.222657 96.15625 8.257813 172.335938 87.5 175.753907 184.945313-10.265626-9.96875-25.082032-15.921875-42.367188-15.921875zm0 0"/></svg>